<?xml version="1.0" encoding="UTF-8" standalone="no"?>
<!-- Created with Inkscape (http://www.inkscape.org/) -->
<svg xmlns:dc="http://purl.org/dc/elements/1.1/" xmlns:cc="http://creativecommons.org/ns#" xmlns:rdf="http://www.w3.org/1999/02/22-rdf-syntax-ns#" xmlns:svg="http://www.w3.org/2000/svg" xmlns="http://www.w3.org/2000/svg" xmlns:xlink="http://www.w3.org/1999/xlink" xmlns:sodipodi="http://sodipodi.sourceforge.net/DTD/sodipodi-0.dtd" xmlns:inkscape="http://www.inkscape.org/namespaces/inkscape" width="464.42996" height="444.33887" id="svg2" version="1.1" inkscape:version="0.48+devel r" sodipodi:docname="treestump2.svg">
  <defs id="defs4">
    <linearGradient id="linearGradient4217">
      <stop style="stop-color:#a46623;stop-opacity:1;" offset="0" id="stop4219"/>
      <stop style="stop-color:#d48834;stop-opacity:1;" offset="1" id="stop4221"/>
    </linearGradient>
    <linearGradient id="linearGradient4211">
      <stop style="stop-color:#efac39;stop-opacity:1;" offset="0" id="stop4213"/>
      <stop style="stop-color:#efac39;stop-opacity:1;" offset="1" id="stop4215"/>
    </linearGradient>
    <linearGradient inkscape:collect="always" xlink:href="#linearGradient4217-5" id="linearGradient4223-9" x1="455.90054" y1="425.36209" x2="459.04752" y2="413.73196" gradientUnits="userSpaceOnUse"/>
    <linearGradient id="linearGradient4217-5">
      <stop style="stop-color:#a46623;stop-opacity:1;" offset="0" id="stop4219-1"/>
      <stop style="stop-color:#d48834;stop-opacity:1;" offset="1" id="stop4221-8"/>
    </linearGradient>
    <linearGradient gradientTransform="matrix(-0.75549755,0.15884501,-0.15884501,-0.75549755,617.75236,689.00257)" y2="413.73196" x2="459.04752" y1="425.36209" x1="455.90054" gradientUnits="userSpaceOnUse" id="linearGradient4240-4" xlink:href="#linearGradient4217-5-6" inkscape:collect="always"/>
    <linearGradient id="linearGradient4217-5-6">
      <stop style="stop-color:#a46623;stop-opacity:1;" offset="0" id="stop4219-1-9"/>
      <stop style="stop-color:#d48834;stop-opacity:1;" offset="1" id="stop4221-8-9"/>
    </linearGradient>
    <linearGradient id="linearGradient4217-7">
      <stop style="stop-color:#a46623;stop-opacity:1;" offset="0" id="stop4219-3"/>
      <stop style="stop-color:#d48834;stop-opacity:1;" offset="1" id="stop4221-5"/>
    </linearGradient>
    <linearGradient id="linearGradient4217-5-1">
      <stop style="stop-color:#a46623;stop-opacity:1;" offset="0" id="stop4219-1-1"/>
      <stop style="stop-color:#d48834;stop-opacity:1;" offset="1" id="stop4221-8-4"/>
    </linearGradient>
    <linearGradient id="linearGradient4217-5-6-1">
      <stop style="stop-color:#a46623;stop-opacity:1;" offset="0" id="stop4219-1-9-3"/>
      <stop style="stop-color:#d48834;stop-opacity:1;" offset="1" id="stop4221-8-9-3"/>
    </linearGradient>
    <inkscape:path-effect is_visible="true" id="path-effect3847" effect="spiro"/>
    <inkscape:path-effect is_visible="true" id="path-effect3851" effect="spiro"/>
    <inkscape:path-effect is_visible="true" id="path-effect3855" effect="spiro"/>
    <inkscape:path-effect is_visible="true" id="path-effect3859" effect="spiro"/>
    <inkscape:path-effect is_visible="true" id="path-effect3863" effect="spiro"/>
    <inkscape:path-effect is_visible="true" id="path-effect3867" effect="spiro"/>
    <inkscape:path-effect is_visible="true" id="path-effect4401" effect="spiro"/>
    <inkscape:path-effect is_visible="true" id="path-effect4405" effect="spiro"/>
    <inkscape:path-effect is_visible="true" id="path-effect4409" effect="spiro"/>
    <inkscape:path-effect is_visible="true" id="path-effect4413" effect="spiro"/>
    <linearGradient inkscape:collect="always" xlink:href="#linearGradient4217-7-8" id="linearGradient4223-6-2" x1="455.90054" y1="425.36209" x2="459.04752" y2="413.73196" gradientUnits="userSpaceOnUse"/>
    <linearGradient id="linearGradient4217-7-8">
      <stop style="stop-color:#a46623;stop-opacity:1;" offset="0" id="stop4219-3-6"/>
      <stop style="stop-color:#d48834;stop-opacity:1;" offset="1" id="stop4221-5-5"/>
    </linearGradient>
    <linearGradient gradientTransform="matrix(-0.75549755,0.15884501,-0.15884501,-0.75549755,617.75236,689.00257)" y2="413.73196" x2="459.04752" y1="425.36209" x1="455.90054" gradientUnits="userSpaceOnUse" id="linearGradient4240-7-8" xlink:href="#linearGradient4217-5-1-5" inkscape:collect="always"/>
    <linearGradient id="linearGradient4217-5-1-5">
      <stop style="stop-color:#a46623;stop-opacity:1;" offset="0" id="stop4219-1-1-9"/>
      <stop style="stop-color:#d48834;stop-opacity:1;" offset="1" id="stop4221-8-4-5"/>
    </linearGradient>
    <linearGradient y2="413.73196" x2="459.04752" y1="425.36209" x1="455.90054" gradientTransform="matrix(-0.44027703,-0.28805398,0.27416021,-0.46258921,354.88646,604.87178)" gradientUnits="userSpaceOnUse" id="linearGradient4274-0-5" xlink:href="#linearGradient4217-5-6-1-2" inkscape:collect="always"/>
    <linearGradient id="linearGradient4217-5-6-1-2">
      <stop style="stop-color:#a46623;stop-opacity:1;" offset="0" id="stop4219-1-9-3-2"/>
      <stop style="stop-color:#d48834;stop-opacity:1;" offset="1" id="stop4221-8-9-3-0"/>
    </linearGradient>
    <filter inkscape:collect="always" id="filter4760-6-1" style="color-interpolation-filters:sRGB">
      <feGaussianBlur inkscape:collect="always" stdDeviation="4.4585361" id="feGaussianBlur4762-8-5"/>
    </filter>
  </defs>
  <sodipodi:namedview id="base" pagecolor="#ffffff" bordercolor="#666666" borderopacity="1.0" inkscape:pageopacity="0.0" inkscape:pageshadow="2" inkscape:zoom="0.22839411" inkscape:cx="339.02903" inkscape:cy="405.72233" inkscape:document-units="px" inkscape:current-layer="layer1" showgrid="false" inkscape:window-width="1855" inkscape:window-height="1056" inkscape:window-x="65" inkscape:window-y="24" inkscape:window-maximized="1" width="0px" height="0px" fit-margin-top="0" fit-margin-left="0" fit-margin-right="0" fit-margin-bottom="0"/>
  <g inkscape:label="Layer 1" inkscape:groupmode="layer" id="layer1" transform="translate(-90.518568,-314.39354)">
    <g id="g5375">
      <path inkscape:connector-curvature="0" id="path3853" d="m 147.14675,411.73466 c -0.18056,1.87683 -5.22519,53.95107 -11.46544,79.80427 -6.578,27.25268 -19.32791,52.65613 -27.40813,79.50175 -5.11285,16.98679 -13.310799,51.51887 -13.310799,51.51887 0,0 25.663639,8.63101 36.120659,2.60165 11.10576,-6.40351 18.2721,-28.10601 21.47878,-39.99289 l 3.63022,3.3277 c 2.60138,19.51934 5.4466,37.13325 17.09227,50.097 l -29.58627,23.4451 c -0.4103,12.13393 -2.68362,27.0093 6.02011,25.47202 36.11607,-8.94205 50.16027,-20.52224 65.37416,-28.07368 -11.07354,87.24496 4.76006,-0.31142 31.64339,15.91245 l 1.84536,-22.71906 c 8.72614,1.88046 8.97408,6.03304 9.80159,10.04361 l -4.59828,15.88215 c 30.6904,1.27967 51.67266,1.56147 66.34222,1.14956 l -5.59659,10.37642 6.7159,30.19131 20.23846,-32.12742 20.904,49.73397 -6.7159,-64.10363 0.30252,-0.63524 c 2.51137,-1.81056 4.31197,-3.80611 8.28899,-5.68734 12.55135,-0.1485 27.61427,-0.52352 45.34746,-1.21007 l 22.17458,28.31569 -18.90738,59.68677 25.77454,-26.50059 9.95284,29.79808 8.10749,-58.29528 -5.59659,-39.47856 c 5.72114,-4.83438 9.4361,-10.69849 12.00997,-17.27383 4.23719,2.07484 8.37388,4.42625 12.76626,6.92771 l 6.05036,43.68361 8.86378,-34.42655 32.76271,45.77093 -13.88558,-38.14748 c 9.1162,3.64135 19.91332,7.21852 33.15598,10.49733 10.53533,1.86061 7.81761,-16.13936 7.32094,-30.82654 L 513.28438,616.7512 c -1.52005,-5.86304 -3.08959,-11.61292 -4.41677,-16.06376 l 1.14957,-16.36618 1.05882,0.15121 36.9677,37.33073 -30.97785,-64.01281 c 9.72261,-4.73147 18.58361,-8.86 28.46695,-25.74429 l 5.50583,-13.61331 -7.74446,-36.63494 c -9.69104,13.3865 -18.71287,23.47817 -25.53252,22.50734 3.77241,-36.32899 -1.45177,-59.16281 -2.81342,-87.79074 l -41.77775,-0.60504 -1.17982,-4.17475 -270.05789,0 0,0.18151 -12.16122,-0.18151 -42.6248,0 z m 174.09915,308.53823 -14.55112,23.08208 14.64188,-22.71906 -0.0907,-0.36302 z" style="fill:#a1652b;fill-opacity:1;stroke:#4c2f14;stroke-width:7.50803423;stroke-linecap:butt;stroke-linejoin:miter;stroke-miterlimit:4;stroke-opacity:1;stroke-dasharray:none"/>
      <g transform="translate(7.5066554,50.717189)" id="g4469-3-2">
        <path style="color:#000000;color-interpolation:sRGB;color-interpolation-filters:linearRGB;fill:#472c13;fill-opacity:1;fill-rule:nonzero;stroke:none;stroke-width:1;marker:none;visibility:visible;display:inline;overflow:visible;enable-background:accumulate;clip-rule:nonzero" d="m 513.18615,387.56846 c -0.64446,41.71344 -28.17241,72.10595 -81.47155,91.94581 -29.11653,10.83825 -71.71594,22.50455 -108.41348,21.93759 -40.36773,-0.62366 -84.66513,-7.75771 -115.0966,-21.67278 -47.87469,-21.89118 -71.78899,-58.58772 -71.17974,-98.02216 0.52663,-34.08703 16.41909,-68.87257 54.25858,-89.64354 33.7619,-18.53272 91.25949,-21.42464 140.23879,-20.66793 44.84411,0.69282 76.34704,23.36738 108.41565,40.13295 42.21312,22.06915 73.81465,39.33525 73.24835,75.99006 z" id="path3950-7-0-3-4" inkscape:connector-curvature="0" sodipodi:nodetypes="sssssssss"/>
        <path style="color:#000000;color-interpolation:sRGB;color-interpolation-filters:linearRGB;fill:#d48834;fill-opacity:1;fill-rule:nonzero;stroke:none;stroke-width:1;marker:none;visibility:visible;display:inline;overflow:visible;enable-background:accumulate;clip-rule:nonzero" d="m 513.18615,379.90627 c -0.64446,41.71344 -28.17241,72.10595 -81.47155,91.94581 -29.11653,10.83825 -71.71594,22.50455 -108.41348,21.93759 -40.36773,-0.62366 -84.66513,-7.75771 -115.0966,-21.67278 -47.87469,-21.89118 -71.78899,-58.58772 -71.17974,-98.02216 0.52663,-34.08703 16.41909,-68.87257 54.25858,-89.64354 33.7619,-18.53272 91.25949,-21.42464 140.23879,-20.66793 44.84411,0.69282 76.34704,23.36738 108.41565,40.13295 42.21312,22.06915 73.81465,39.33525 73.24835,75.99006 z" id="path3950-7-00-0" inkscape:connector-curvature="0" sodipodi:nodetypes="sssssssss"/>
        <path style="color:#000000;color-interpolation:sRGB;color-interpolation-filters:linearRGB;fill:#f6c47b;fill-opacity:1;fill-rule:nonzero;stroke:none;stroke-width:1;marker:none;visibility:visible;display:inline;overflow:visible;enable-background:accumulate;clip-rule:nonzero" d="m 501.55103,377.10823 c 0,39.13874 -25.38219,68.04744 -75.09205,87.43072 -27.15576,10.58881 -66.94716,22.14979 -101.3796,22.14979 -37.87607,0 -79.53276,-6.05012 -108.28073,-18.66217 -45.22623,-19.84125 -68.19092,-53.91794 -68.19092,-90.91834 0,-31.98306 14.40384,-64.84403 49.59824,-84.87669 31.40185,-17.87395 85.29568,-21.42001 131.25181,-21.42001 42.07615,0 71.95617,20.81337 102.28117,36.0756 39.91796,20.09024 69.81208,35.82876 69.81208,70.2211 z" id="path3950-0-7" inkscape:connector-curvature="0" sodipodi:nodetypes="sssssssss"/>
        <path style="color:#000000;color-interpolation:sRGB;color-interpolation-filters:linearRGB;fill:#efac39;fill-opacity:1;fill-rule:nonzero;stroke:none;stroke-width:1;marker:none;visibility:visible;display:inline;overflow:visible;enable-background:accumulate;clip-rule:nonzero" d="m 485.13204,377.10823 c 0,35.49726 -23.02062,61.71628 -68.10546,79.29613 -24.62917,9.60363 -60.71837,20.08897 -91.9472,20.08897 -34.35207,0 -72.133,-5.48722 -98.20625,-16.92584 -41.01837,-17.99521 -61.84641,-48.90139 -61.84641,-82.45926 0,-29.00734 13.0637,-58.81092 44.9836,-76.97973 28.48021,-16.21095 73.38871,-22.40536 115.06906,-22.40536 38.16137,0 69.23237,21.85516 96.73592,35.69739 36.20398,18.22103 63.31674,32.49524 63.31674,63.6877 z" id="path3950-4-5-2" inkscape:connector-curvature="0" sodipodi:nodetypes="sssssssss"/>
        <path style="color:#000000;color-interpolation:sRGB;color-interpolation-filters:linearRGB;fill:#f6c47b;fill-opacity:1;fill-rule:nonzero;stroke:none;stroke-width:1;marker:none;visibility:visible;display:inline;overflow:visible;enable-background:accumulate;clip-rule:nonzero" d="m 479.65905,377.10823 c 0,34.28343 -22.23344,59.6059 -65.7766,76.58461 -23.78698,9.27522 -58.64211,19.40202 -88.80307,19.40202 -33.1774,0 -69.66642,-5.29958 -94.84809,-16.34706 -39.61574,-17.37986 -59.73158,-47.22921 -59.73158,-79.63957 0,-28.01544 12.61699,-56.79988 43.44539,-74.34741 27.50633,-15.65662 70.87918,-21.63921 111.13428,-21.63921 36.85644,0 65.77037,17.27672 92.33344,30.64562 34.96599,17.59797 62.24623,35.21516 62.24623,65.341 z" id="path3950-6-67-8" inkscape:connector-curvature="0" sodipodi:nodetypes="sssssssss"/>
        <path style="color:#000000;color-interpolation:sRGB;color-interpolation-filters:linearRGB;fill:#efac39;fill-opacity:1;fill-rule:nonzero;stroke:none;stroke-width:1;marker:none;visibility:visible;display:inline;overflow:visible;enable-background:accumulate;clip-rule:nonzero" d="m 465.2769,377.10823 c 0,31.09369 -20.16483,54.06014 -59.65672,69.45914 -21.57383,8.41227 -53.18603,17.59686 -80.5408,17.59686 -30.09056,0 -63.18463,-4.80651 -86.02339,-14.82613 -35.92988,-15.76283 -54.17413,-42.83498 -54.17413,-72.22987 0,-25.40887 17.4634,-52.0625 45.42352,-67.9774 24.94713,-14.19992 58.26426,-19.07859 94.774,-19.07859 33.42731,0 60.64383,19.14394 84.73546,31.26899 31.71274,15.96064 55.46206,28.46408 55.46206,55.787 z" id="path3950-4-9-4-8" inkscape:connector-curvature="0" sodipodi:nodetypes="sssssssss"/>
        <path style="color:#000000;color-interpolation:sRGB;color-interpolation-filters:linearRGB;fill:#f6c47b;fill-opacity:1;fill-rule:nonzero;stroke:none;stroke-width:1;marker:none;visibility:visible;display:inline;overflow:visible;enable-background:accumulate;clip-rule:nonzero" d="m 458.50576,377.10823 c 0,29.59195 -19.19093,51.44919 -56.77547,66.10447 -20.53188,8.00596 -50.6173,16.74697 -76.65091,16.74697 -28.63727,0 -60.13299,-4.57436 -81.8687,-14.11006 -34.19457,-15.00153 -51.55768,-40.76618 -51.55768,-68.74138 0,-24.1817 10.89044,-49.02716 37.50016,-64.17342 23.74225,-13.5141 61.17979,-18.67801 95.92622,-18.67801 31.81286,0 57.7149,18.21934 80.64298,29.75879 30.1811,15.18979 52.7834,27.08934 52.7834,53.09264 z" id="path3950-6-6-0-7" inkscape:connector-curvature="0" sodipodi:nodetypes="sssssssss"/>
        <path style="color:#000000;color-interpolation:sRGB;color-interpolation-filters:linearRGB;fill:#efac39;fill-opacity:1;fill-rule:nonzero;stroke:none;stroke-width:1;marker:none;visibility:visible;display:inline;overflow:visible;enable-background:accumulate;clip-rule:nonzero" d="m 446.09172,377.10823 c 0,26.83871 -17.4054,46.66234 -51.49306,59.95408 -18.62158,7.2611 -45.90785,15.18883 -69.51928,15.18883 -25.97285,0 -54.53819,-4.14877 -74.25161,-12.79726 -31.01309,-13.60578 -46.76073,-36.97327 -46.76073,-62.34565 0,-21.93182 9.87718,-44.46566 34.01113,-58.2027 21.53327,-12.25674 55.48761,-16.9402 87.00121,-16.9402 28.85298,0 52.34509,16.5242 73.13992,26.99001 27.37305,13.77653 47.87242,24.56895 47.87242,48.15289 z" id="path3950-4-9-2-2-0" inkscape:connector-curvature="0" sodipodi:nodetypes="sssssssss"/>
        <path style="color:#000000;color-interpolation:sRGB;color-interpolation-filters:linearRGB;fill:#f6c47b;fill-opacity:1;fill-rule:nonzero;stroke:none;stroke-width:1;marker:none;visibility:visible;display:inline;overflow:visible;enable-background:accumulate;clip-rule:nonzero" d="m 440.87801,377.10823 c 0,25.68238 -16.6555,44.65193 -49.27452,57.37102 -17.8193,6.94824 -43.92995,14.53443 -66.52411,14.53443 -24.85383,0 -52.18847,-3.97002 -71.05254,-12.2459 -29.67693,-13.01959 -44.74609,-35.38032 -44.74609,-59.65955 0,-20.98691 9.45164,-42.54989 32.54579,-55.69509 20.60552,-11.72867 53.64427,-12.92655 83.80014,-12.92655 27.60988,0 49.54254,12.52848 69.44146,22.54338 26.1937,13.18298 45.80987,23.51041 45.80987,46.07826 z" id="path3950-6-6-3-8-0" inkscape:connector-curvature="0" sodipodi:nodetypes="sssssssss"/>
        <path style="color:#000000;color-interpolation:sRGB;color-interpolation-filters:linearRGB;fill:#efac39;fill-opacity:1;fill-rule:nonzero;stroke:none;stroke-width:1;marker:none;visibility:visible;display:inline;overflow:visible;enable-background:accumulate;clip-rule:nonzero" d="m 430.10407,377.10823 c 0,23.29289 -15.10587,40.4975 -44.69001,52.03319 -16.16138,6.3018 -39.8427,13.18215 -60.33468,13.18215 -22.54142,0 -47.33283,-3.60065 -64.44179,-11.10654 -26.91577,-11.80824 -40.5829,-32.08851 -40.5829,-54.1088 0,-19.03428 8.57225,-38.59104 29.51772,-50.5132 18.68839,-10.63743 48.15682,-14.70213 75.50697,-14.70213 25.04104,0 45.42947,14.34109 63.47697,23.4242 23.75664,11.95643 41.54772,21.323 41.54772,41.79113 z" id="path3950-4-9-2-6-7-3" inkscape:connector-curvature="0" sodipodi:nodetypes="sssssssss"/>
        <path style="color:#000000;color-interpolation:sRGB;color-interpolation-filters:linearRGB;fill:#f6c47b;fill-opacity:1;fill-rule:nonzero;stroke:none;stroke-width:1;marker:none;visibility:visible;display:inline;overflow:visible;enable-background:accumulate;clip-rule:nonzero" d="m 423.25027,377.10823 c 0,21.77281 -14.12008,37.85468 -41.77358,48.63757 -15.10672,5.89053 -37.2426,12.32189 -56.39731,12.32189 -21.07039,0 -44.24395,-3.36568 -60.23638,-10.38174 -25.15929,-11.03765 -37.93451,-29.99446 -37.93451,-50.57772 0,-17.79212 8.01284,-36.07262 27.59143,-47.21676 17.46879,-9.94324 45.01414,-13.74269 70.57946,-13.74269 23.40689,0 42.46479,13.40522 59.33454,21.89557 22.2063,11.17617 38.83635,19.93148 38.83635,39.06388 z" id="path3950-6-6-3-6-4-1" inkscape:connector-curvature="0" sodipodi:nodetypes="sssssssss"/>
        <path style="color:#000000;color-interpolation:sRGB;color-interpolation-filters:linearRGB;fill:#efac39;fill-opacity:1;fill-rule:nonzero;stroke:none;stroke-width:1;marker:none;visibility:visible;display:inline;overflow:visible;enable-background:accumulate;clip-rule:nonzero" d="m 414.11642,377.10823 c 0,19.74707 -12.80634,34.33266 -37.88696,44.1123 -13.70117,5.3425 -33.77754,11.17547 -51.15008,11.17547 -19.10999,0 -40.12747,-3.05253 -54.63197,-9.41582 -22.81845,-10.0107 -34.40507,-27.20375 -34.40507,-45.87195 0,-16.13674 7.26732,-32.71642 25.02431,-42.8237 15.8435,-9.01812 40.82603,-12.46406 64.01273,-12.46406 21.2291,0 38.51385,12.15798 53.81402,19.85839 20.14023,10.13633 35.22302,18.07705 35.22302,35.42937 z" id="path3950-4-9-2-6-1-04-9" inkscape:connector-curvature="0" sodipodi:nodetypes="sssssssss"/>
        <path style="color:#000000;color-interpolation:sRGB;color-interpolation-filters:linearRGB;fill:#f6c47b;fill-opacity:1;fill-rule:nonzero;stroke:none;stroke-width:1;marker:none;visibility:visible;display:inline;overflow:visible;enable-background:accumulate;clip-rule:nonzero" d="m 409.14807,377.10823 c 0,18.64516 -12.09173,32.41688 -35.77282,41.65081 -12.93665,5.04436 -31.89272,10.55186 -48.29587,10.55186 -18.04364,0 -37.88833,-2.88221 -51.58346,-8.89041 -21.54517,-9.4521 -32.48523,-25.68577 -32.48523,-43.31226 0,-15.23629 6.8618,-30.89081 23.62793,-40.4341 14.95941,-8.5149 38.54788,-11.76856 60.44076,-11.76856 20.0445,0 36.36475,11.47957 50.81116,18.75029 19.01638,9.57072 33.25753,17.06833 33.25753,33.45237 z" id="path3950-6-6-3-6-1-3-9" inkscape:connector-curvature="0" sodipodi:nodetypes="sssssssss"/>
        <path style="color:#000000;color-interpolation:sRGB;color-interpolation-filters:linearRGB;fill:#efac39;fill-opacity:1;fill-rule:nonzero;stroke:none;stroke-width:1;marker:none;visibility:visible;display:inline;overflow:visible;enable-background:accumulate;clip-rule:nonzero" d="m 401.3263,377.10823 c 0,16.91041 -10.96672,29.40079 -32.44452,37.77559 -11.73301,4.57506 -28.92542,9.57012 -43.8024,9.57012 -16.36485,0 -34.36318,-2.61403 -46.78412,-8.06324 -19.54059,-8.57267 -23.9898,-19.46485 -23.9898,-35.45137 0,-13.81871 0.75038,-31.84782 15.95658,-40.5032 13.56759,-7.72267 34.9614,-10.6736 54.81734,-10.6736 18.17955,0 40.09625,9.31689 53.19855,15.91114 17.2471,8.68025 23.04837,16.57489 23.04837,31.43456 z" id="path3950-4-9-2-6-1-2-6-3" inkscape:connector-curvature="0" sodipodi:nodetypes="sssssssss"/>
        <path style="color:#000000;color-interpolation:sRGB;color-interpolation-filters:linearRGB;fill:#f6c47b;fill-opacity:1;fill-rule:nonzero;stroke:none;stroke-width:1;marker:none;visibility:visible;display:inline;overflow:visible;enable-background:accumulate;clip-rule:nonzero" d="m 391.52033,377.10823 c 0,14.73559 -9.55631,25.61962 -28.27189,32.91736 -10.22406,3.98664 -25.20537,8.33932 -38.16906,8.33932 -14.2602,0 -29.94381,-2.27786 -40.7673,-7.02625 -17.02752,-7.47016 -25.67365,-20.29991 -25.67365,-34.23043 0,-12.0415 5.423,-24.41354 18.67357,-31.95577 11.82268,-6.72947 29.91776,-8.7536 47.22008,-8.7536 15.84152,0 29.28699,8.52521 40.70425,14.27138 15.02897,7.5639 26.284,13.4894 26.284,26.43799 z" id="path3950-6-6-3-6-2-1-3" inkscape:connector-curvature="0" sodipodi:nodetypes="sssssssss"/>
        <path style="color:#000000;color-interpolation:sRGB;color-interpolation-filters:linearRGB;fill:#efac39;fill-opacity:1;fill-rule:nonzero;stroke:none;stroke-width:1;marker:none;visibility:visible;display:inline;overflow:visible;enable-background:accumulate;clip-rule:nonzero" d="m 385.33864,377.10823 c 0,13.3646 -8.66718,23.23596 -25.64146,29.85471 -9.2728,3.61574 -22.86026,7.56343 -34.6178,7.56343 -12.93343,0 -27.15782,-2.06592 -36.9743,-6.37252 -15.44327,-6.77513 -23.28496,-18.41119 -23.28496,-31.04562 0,-10.92116 4.91844,-22.1421 16.93617,-28.98259 10.7227,-6.10337 27.63059,-8.43554 43.32309,-8.43554 14.36761,0 26.06574,8.22838 36.42072,13.43993 13.63068,6.86016 23.83854,12.23435 23.83854,23.9782 z" id="path3950-4-9-2-6-1-0-2-7" inkscape:connector-curvature="0" sodipodi:nodetypes="sssssssss"/>
        <path style="color:#000000;color-interpolation:sRGB;color-interpolation-filters:linearRGB;fill:#efac39;fill-opacity:1;fill-rule:nonzero;stroke:none;stroke-width:1;marker:none;visibility:visible;display:inline;overflow:visible;enable-background:accumulate;clip-rule:nonzero" d="m 376.90005,377.10823 c 0,11.49304 -7.45345,19.98204 -22.05069,25.67391 -7.97425,3.1094 -19.65894,6.50426 -29.76998,6.50426 -11.12225,0 -23.35469,-1.77661 -31.79649,-5.48012 -13.28062,-5.82635 -20.02418,-15.83292 -20.02418,-26.69805 0,-9.39178 4.22967,-19.04136 14.56446,-24.92393 9.22112,-5.24865 23.76126,-7.25423 37.25621,-7.25423 12.3556,0 22.41554,7.07609 31.32043,11.55783 11.72187,5.89947 20.50024,10.52107 20.50024,20.62033 z" id="path3950-4-9-2-6-1-8-7-9" inkscape:connector-curvature="0" sodipodi:nodetypes="sssssssss"/>
        <path style="color:#000000;color-interpolation:sRGB;color-interpolation-filters:linearRGB;fill:#f6c47b;fill-opacity:1;fill-rule:nonzero;stroke:none;stroke-width:1;marker:none;visibility:visible;display:inline;overflow:visible;enable-background:accumulate;clip-rule:nonzero" d="m 374.00841,377.10823 c 0,10.85172 -7.03754,18.86703 -20.82023,24.24129 -7.52929,2.93588 -18.56196,6.14132 -28.1088,6.14132 -10.50162,0 -22.05148,-1.67748 -30.02222,-5.17433 -12.53956,-5.50124 -18.90681,-14.94944 -18.90681,-25.20828 0,-8.86771 3.99366,-17.97883 13.75175,-23.53315 8.70657,-4.95578 22.43535,-6.84945 35.17728,-6.84945 11.66615,0 21.16474,6.68126 29.57273,10.91291 11.06777,5.57027 19.3563,9.93398 19.3563,19.46969 z" id="path3950-6-6-3-6-1-6-2-0" inkscape:connector-curvature="0" sodipodi:nodetypes="sssssssss"/>
        <path style="color:#000000;color-interpolation:sRGB;color-interpolation-filters:linearRGB;fill:#efac39;fill-opacity:1;fill-rule:nonzero;stroke:none;stroke-width:1;marker:none;visibility:visible;display:inline;overflow:visible;enable-background:accumulate;clip-rule:nonzero" d="m 369.45604,377.10823 c 0,9.84207 -6.38277,17.11163 -18.88312,21.98587 -6.82875,2.66274 -16.83495,5.56993 -25.49354,5.56993 -9.52455,0 -19.9998,-1.5214 -27.22894,-4.69291 -11.37287,-4.9894 -17.14772,-13.55853 -17.14772,-22.86289 0,-8.04266 3.62209,-16.30608 12.47228,-21.34362 7.89651,-4.49469 20.34798,-6.21217 31.90438,-6.21217 10.58073,0 19.19556,6.05962 26.82127,9.89756 10.03802,5.05201 17.55539,9.00972 17.55539,17.65823 z" id="path3950-4-9-2-6-1-2-4-8-7" inkscape:connector-curvature="0" sodipodi:nodetypes="sssssssss"/>
        <path style="color:#000000;color-interpolation:sRGB;color-interpolation-filters:linearRGB;fill:#f6c47b;fill-opacity:1;fill-rule:nonzero;stroke:none;stroke-width:1;marker:none;visibility:visible;display:inline;overflow:visible;enable-background:accumulate;clip-rule:nonzero" d="m 363.74884,377.10823 c 0,8.5763 -5.56189,14.91094 -16.45459,19.15832 -5.95053,2.32027 -14.66984,4.85358 -22.21487,4.85358 -8.29961,0 -17.42767,-1.32574 -23.72708,-4.08936 -9.91023,-4.34773 -14.94238,-11.8148 -14.94238,-19.92254 0,-7.0083 3.15625,-14.20898 10.86825,-18.59865 6.88095,-3.91664 17.73104,-5.41324 27.80121,-5.41324 9.21996,0 16.72686,5.28031 23.37185,8.62465 8.74704,4.40229 15.29761,7.851 15.29761,15.38724 z" id="path3950-6-6-3-6-2-9-9-4" inkscape:connector-curvature="0" sodipodi:nodetypes="sssssssss"/>
        <path style="color:#000000;color-interpolation:sRGB;color-interpolation-filters:linearRGB;fill:#efac39;fill-opacity:1;fill-rule:nonzero;stroke:none;stroke-width:1;marker:none;visibility:visible;display:inline;overflow:visible;enable-background:accumulate;clip-rule:nonzero" d="m 360.15102,377.10823 c 0,5.43263 -5.04441,9.44527 -14.92365,12.13575 -5.39688,1.46977 -13.30495,3.07449 -20.14799,3.07449 -7.52742,0 -15.80619,-0.83979 -21.5195,-2.5904 -8.98818,-2.75404 -13.55214,-7.48402 -13.55214,-12.61984 0,-4.43938 2.86259,-9.00062 9.85706,-11.78123 6.24075,-2.48098 16.08135,-3.429 25.21458,-3.429 8.36213,0 15.17059,3.34479 21.19731,5.46325 7.93323,2.78861 13.87433,4.97318 13.87433,9.74698 z" id="path3950-4-9-2-6-1-0-7-5-0" inkscape:connector-curvature="0" sodipodi:nodetypes="sssssssss"/>
        <path style="color:#000000;color-interpolation:sRGB;color-interpolation-filters:linearRGB;fill:#f6c47b;fill-opacity:1;fill-rule:nonzero;stroke:none;stroke-width:1;marker:none;visibility:visible;display:inline;overflow:visible;enable-background:accumulate;clip-rule:nonzero" d="m 350.61365,377.10823 c 0,2.321 -3.35776,4.03533 -9.93377,5.18479 -3.59239,0.62794 -8.85631,1.31352 -13.4113,1.31352 -5.01054,0 -10.52123,-0.35878 -14.32423,-1.1067 -5.9829,-1.17662 -9.02084,-3.19742 -9.02084,-5.39161 0,-1.89665 1.90545,-3.84535 6.56125,-5.03333 4.15409,-1.05995 10.70438,-1.46497 16.78382,-1.46497 5.56616,0 10.09814,1.429 14.10978,2.33407 5.28065,1.19139 9.23529,2.12471 9.23529,4.16423 z" id="path3950-6-6-3-6-2-9-8-2-2" inkscape:connector-curvature="0" sodipodi:nodetypes="sssssssss"/>
        <path style="fill:url(#linearGradient4223-6-2);fill-opacity:1;stroke:none" d="m 486.4125,423.51496 -24.7653,2.32603 -19.42914,-5.88347 -20.52373,-0.95778 -15.05074,-2.59967 23.53388,-2.46285 19.70279,1.77873 20.79738,3.14697 21.89198,-3.42062" id="path4201-4-2" inkscape:connector-curvature="0"/>
        <path style="fill:url(#linearGradient4240-7-8);fill-opacity:1;stroke:none" d="m 182.99569,446.30226 18.34063,-5.69116 15.61322,1.35874 15.65775,-2.5365 11.78376,-0.4267 -17.38859,5.59891 -15.16793,1.78587 -16.21226,0.92603 -15.996,6.0617" id="path4201-0-3-2" inkscape:connector-curvature="0" inkscape:transform-center-x="-168.43442" inkscape:transform-center-y="198.83198"/>
        <path style="fill:url(#linearGradient4274-0-5);fill-opacity:1;stroke:none" d="m 256.84117,268.84529 11.54129,6.05773 6.94118,8.31828 8.77354,6.35499 5.91378,5.53801 -11.03664,-5.63975 -8.18702,-6.49828 -8.29385,-7.44652 -10.57633,-4.72375" id="path4201-0-7-0-4" inkscape:connector-curvature="0" inkscape:transform-center-x="-15.387126" inkscape:transform-center-y="7.6067172"/>
      </g>
      <g transform="translate(799.05739,-91.946329)" id="g5334">
        <g id="g4540-72-2" style="stroke:#472c13;stroke-opacity:1" transform="translate(-791.55073,140.47432)">
          <path inkscape:connector-curvature="0" id="path4498-5-5" d="M 157.12169,456.38335 145.51172,533.7832" style="fill:none;stroke:#472c13;stroke-width:3;stroke-linecap:butt;stroke-linejoin:miter;stroke-miterlimit:4;stroke-opacity:1;stroke-dasharray:none"/>
          <path inkscape:connector-curvature="0" id="path4500-0-1" d="m 229.10355,510.56324 -61.91988,81.26984" style="fill:none;stroke:#472c13;stroke-width:3;stroke-linecap:butt;stroke-linejoin:miter;stroke-miterlimit:4;stroke-opacity:1;stroke-dasharray:none"/>
          <path inkscape:connector-curvature="0" id="path4508-2-5" d="m 294.89342,512.88524 -54.17989,92.87981" style="fill:none;stroke:#472c13;stroke-width:3;stroke-linecap:butt;stroke-linejoin:miter;stroke-miterlimit:4;stroke-opacity:1;stroke-dasharray:none"/>
          <path inkscape:connector-curvature="0" id="path4510-73-4" d="m 379.25926,519.07722 30.95994,71.98186" style="fill:none;stroke:#472c13;stroke-width:3;stroke-linecap:butt;stroke-linejoin:miter;stroke-miterlimit:4;stroke-opacity:1;stroke-dasharray:none"/>
          <path inkscape:connector-curvature="0" id="path4516-9-5" d="m 338.23734,568.61313 18.57596,54.95389" style="fill:none;stroke:#472c13;stroke-width:3;stroke-linecap:butt;stroke-linejoin:miter;stroke-miterlimit:4;stroke-opacity:1;stroke-dasharray:none"/>
          <path inkscape:connector-curvature="0" id="path4522-3-9" d="M 310.37339,589.51109 295.66742,635.177" style="fill:none;stroke:#472c13;stroke-width:3;stroke-linecap:butt;stroke-linejoin:miter;stroke-miterlimit:4;stroke-opacity:1;stroke-dasharray:none"/>
          <path inkscape:connector-curvature="0" id="path4528-0-7" d="m 444.27513,541.52318 13.15798,57.27589" style="fill:none;stroke:#472c13;stroke-width:3;stroke-linecap:butt;stroke-linejoin:miter;stroke-miterlimit:4;stroke-opacity:1;stroke-dasharray:none"/>
          <path inkscape:connector-curvature="0" id="path4536-3-3" d="M 485.29705,519.85122 510.065,513.65923" style="fill:none;stroke:#472c13;stroke-width:3;stroke-linecap:butt;stroke-linejoin:miter;stroke-miterlimit:4;stroke-opacity:1;stroke-dasharray:none"/>
          <path inkscape:connector-curvature="0" id="path4538-5-4" d="m 478.33107,548.48917 30.18594,19.34996" style="fill:none;stroke:#472c13;stroke-width:3;stroke-linecap:butt;stroke-linejoin:miter;stroke-miterlimit:4;stroke-opacity:1;stroke-dasharray:none"/>
        </g>
        <g transform="translate(-803.53473,124.81389)" id="g4540-7-2-5" style="opacity:0.46813187;stroke:#b26e30;stroke-width:12;stroke-miterlimit:4;stroke-opacity:1;stroke-dasharray:none;filter:url(#filter4760-6-1)">
          <path inkscape:connector-curvature="0" id="path4498-4-3-3" d="M 157.12169,456.38335 145.51172,533.7832" style="fill:none;stroke:#b26e30;stroke-width:12;stroke-linecap:butt;stroke-linejoin:miter;stroke-miterlimit:4;stroke-opacity:1;stroke-dasharray:none"/>
          <path inkscape:connector-curvature="0" id="path4500-4-5-1" d="m 229.10355,510.56324 -61.91988,81.26984" style="fill:none;stroke:#b26e30;stroke-width:12;stroke-linecap:butt;stroke-linejoin:miter;stroke-miterlimit:4;stroke-opacity:1;stroke-dasharray:none"/>
          <path inkscape:connector-curvature="0" id="path4508-4-8-6" d="m 294.89342,512.88524 -54.17989,92.87981" style="fill:none;stroke:#b26e30;stroke-width:12;stroke-linecap:butt;stroke-linejoin:miter;stroke-miterlimit:4;stroke-opacity:1;stroke-dasharray:none"/>
          <path inkscape:connector-curvature="0" id="path4510-7-6-4" d="m 379.25926,519.07722 30.95994,71.98186" style="fill:none;stroke:#b26e30;stroke-width:12;stroke-linecap:butt;stroke-linejoin:miter;stroke-miterlimit:4;stroke-opacity:1;stroke-dasharray:none"/>
          <path inkscape:connector-curvature="0" id="path4516-4-9-4" d="m 338.23734,568.61313 18.57596,54.95389" style="fill:none;stroke:#b26e30;stroke-width:12;stroke-linecap:butt;stroke-linejoin:miter;stroke-miterlimit:4;stroke-opacity:1;stroke-dasharray:none"/>
          <path inkscape:connector-curvature="0" id="path4522-5-3-9" d="M 310.37339,589.51109 295.66742,635.177" style="fill:none;stroke:#b26e30;stroke-width:12;stroke-linecap:butt;stroke-linejoin:miter;stroke-miterlimit:4;stroke-opacity:1;stroke-dasharray:none"/>
          <path inkscape:connector-curvature="0" id="path4528-4-2-5" d="m 444.27513,541.52318 13.15798,57.27589" style="fill:none;stroke:#b26e30;stroke-width:12;stroke-linecap:butt;stroke-linejoin:miter;stroke-miterlimit:4;stroke-opacity:1;stroke-dasharray:none"/>
          <path inkscape:connector-curvature="0" id="path4536-5-2-5" d="M 485.29705,519.85122 510.065,513.65923" style="fill:none;stroke:#b26e30;stroke-width:12;stroke-linecap:butt;stroke-linejoin:miter;stroke-miterlimit:4;stroke-opacity:1;stroke-dasharray:none"/>
          <path inkscape:connector-curvature="0" id="path4538-2-5-3" d="m 478.33107,548.48917 30.18594,19.34996" style="fill:none;stroke:#b26e30;stroke-width:12;stroke-linecap:butt;stroke-linejoin:miter;stroke-miterlimit:4;stroke-opacity:1;stroke-dasharray:none"/>
        </g>
      </g>
    </g>
  </g>
  <metadata>
    <rdf:RDF>
      <cc:Work>
        <dc:format>image/svg+xml</dc:format>
        <dc:type rdf:resource="http://purl.org/dc/dcmitype/StillImage"/>
        <cc:license rdf:resource="http://creativecommons.org/licenses/publicdomain/"/>
        <dc:publisher>
          <cc:Agent rdf:about="http://openclipart.org/">
            <dc:title>Open Clip Art Library</dc:title>
          </cc:Agent>
        </dc:publisher>
        <dc:title>Tree stump</dc:title>
        <dc:date>2012-05-06T13:20:53</dc:date>
        <dc:description>Tree stump I made for my Android game Memory Owl HD.</dc:description>
        <dc:source>http://openclipart.org/detail/169883/tree-stump-by-magnesus</dc:source>
        <dc:creator>
          <cc:Agent>
            <dc:title>Magnesus</dc:title>
          </cc:Agent>
        </dc:creator>
        <dc:subject>
          <rdf:Bag>
            <rdf:li>clip art</rdf:li>
            <rdf:li>clipart</rdf:li>
            <rdf:li>stump</rdf:li>
            <rdf:li>tree</rdf:li>
            <rdf:li>trunk</rdf:li>
            <rdf:li>wood</rdf:li>
            <rdf:li>wooden</rdf:li>
          </rdf:Bag>
        </dc:subject>
      </cc:Work>
      <cc:License rdf:about="http://creativecommons.org/licenses/publicdomain/">
        <cc:permits rdf:resource="http://creativecommons.org/ns#Reproduction"/>
        <cc:permits rdf:resource="http://creativecommons.org/ns#Distribution"/>
        <cc:permits rdf:resource="http://creativecommons.org/ns#DerivativeWorks"/>
      </cc:License>
    </rdf:RDF>
  </metadata>
</svg>
